# xmcd CD database file
#
# Track frame offsets:
#	150
#	17634
#	33944
#
# Disc length: 539 seconds
#
# Revision: 0
# Processed by: cddbd v1.5.1PL0 Copyright (c) Steve Scherf et al.
# Submitted via: CDex 1.51
#
DISCID=17021903
DTITLE=小島麻由美 - ブルーメロディ
DYEAR=2004
DGENRE=JPop
TTITLE0=ブルーメロディ
TTITLE1=ちどり足
TTITLE2=アオイメヲシタ
EXTD=YEAR: 2004
EXTT0=
EXTT1=
EXTT2=
PLAYORDER=
